# xmcd CD database file
#
# Track frame offsets:
#	150
#	20572
#	38505
#	60157
#	73777
#	92795
#	109500
#	132632
#	150812
#
# Disc length: 2324 seconds
#
# Revision: 0
# Processed by: cddbd v1.4PL0 Copyright (c) Steve Scherf et al.
# Submitted via: CDex 1.50beta10
#
DISCID=67091209
DTITLE=Joyce Collins - Girls Here Plays Mean Piano
DYEAR=1960
DGENRE=Jazz
TTITLE0=I Let A Song Go Out Of My Hert
TTITLE1=Just In Time
TTITLE2=Walkin'
TTITLE3=I Get Alone Without You Very Well
TTITLE4=The End Of A Love Affair
TTITLE5=Day In, Day Out
TTITLE6=Something Gatta Give
TTITLE7=Ah< Moore
TTITLE8=Blue Jay
EXTD=YEAR: 1960
EXTT0=
EXTT1=
EXTT2=
EXTT3=
EXTT4=
EXTT5=
EXTT6=
EXTT7=
EXTT8=
PLAYORDER=
